<svg width="175" height="174" viewBox="0 0 175 174" fill="none" xmlns="http://www.w3.org/2000/svg">
<g id="Group 5">
<g id="Group 1">
<path id="Rectangle 1" d="M41.4839 113.68L55.4717 96.1188C60.5982 89.6826 68.9355 87.3097 76.3773 89.4651L62.3895 107.026C57.263 113.462 48.9257 115.835 41.4839 113.68Z" stroke="#0A0A0A" stroke-width="13.6034"/>
<path id="Rectangle 2" d="M25.153 102.561L38.321 86.029C46.0631 76.3091 60.2188 74.7058 69.9387 82.4479L77.2977 88.3095L64.1298 104.841C56.3877 114.561 42.232 116.165 32.5121 108.423L25.153 102.561Z" stroke="#0A0A0A" stroke-width="15"/>
</g>
<g id="Group 3">
<path id="Rectangle 1_2" d="M77.9116 113.986L95.4728 127.974C101.909 133.1 104.282 141.438 102.127 148.879L84.5654 134.892C78.1292 129.765 75.7562 121.428 77.9116 113.986Z" stroke="#0A0A0A" stroke-width="13.6034"/>
<path id="Rectangle 2_2" d="M89.0307 97.6551L105.563 110.823C115.282 118.565 116.886 132.721 109.144 142.441L103.282 149.8L86.7502 136.632C77.0303 128.89 75.427 114.734 83.1691 105.014L89.0307 97.6551Z" stroke="#0A0A0A" stroke-width="15"/>
</g>
<g id="Group 2">
<path id="Rectangle 1_3" d="M61.2728 40.7628L78.8339 54.7506C85.2701 59.8771 87.6431 68.2144 85.4877 75.6562L67.9265 61.6684C61.4903 56.5418 59.1174 48.2046 61.2728 40.7628Z" stroke="#0A0A0A" stroke-width="13.6034"/>
<path id="Rectangle 2_3" d="M72.3918 24.4319L88.9237 37.5999C98.6436 45.3419 100.247 59.4977 92.5048 69.2175L86.6432 76.5766L70.1113 63.4086C60.3914 55.6666 58.7881 41.5109 66.5301 31.791L72.3918 24.4319Z" stroke="#0A0A0A" stroke-width="15"/>
</g>
<g id="Group 4">
<path id="Rectangle 1_4" d="M134.19 60.5516L120.202 78.1127C115.076 84.5489 106.738 86.9219 99.2966 84.7665L113.284 67.2053C118.411 60.7691 126.748 58.3962 134.19 60.5516Z" stroke="#0A0A0A" stroke-width="13.6034"/>
<path id="Rectangle 2_4" d="M150.521 71.6706L137.353 88.2026C129.611 97.9224 115.455 99.5258 105.735 91.7837L98.3762 85.9221L111.544 69.3902C119.286 59.6703 133.442 58.067 143.162 65.809L150.521 71.6706Z" stroke="#0A0A0A" stroke-width="15"/>
</g>
</g>
</svg>
